<svg width="513" height="512" viewBox="0 0 513 512" fill="none" xmlns="http://www.w3.org/2000/svg">
<path fill-rule="evenodd" clip-rule="evenodd" d="M199.608 243.576V317.122V411.32V430.004H218.292H280.217V392.636H236.975V335.806H280.217C281.818 335.806 283.402 335.767 284.968 335.688L258.028 298.438H236.975V269.329L218.351 243.576H199.608ZM312.87 270.177C312.87 270.126 312.871 270.075 312.871 270.023C312.871 261.331 309.955 254.582 305.333 250.025C302.63 247.361 298.787 244.901 293.459 243.338L282.854 228.674C291.289 222.994 298.684 215.887 304.691 207.698C315.085 210.855 324.186 216.139 331.566 223.413C344.236 235.903 350.238 252.704 350.238 270.023C350.238 283.21 346.759 296.096 339.506 307.007L312.87 270.177Z" fill="#FD2946"/>
<path fill-rule="evenodd" clip-rule="evenodd" d="M168.949 79.9963H150.265V98.6802V213.076V302.839H187.633V231.76H224.387L264.065 286.622H280.217C290.406 286.622 295.054 283.562 297.038 281.606C298.656 280.011 300.19 277.492 300.79 273.637L265.533 224.887C291.665 212.901 309.815 186.509 309.815 155.878C309.815 113.97 275.841 79.9963 233.933 79.9963H168.949ZM338.746 326.124C329.505 334.857 318.284 340.915 305.796 344.324L307.654 346.893C311.691 354.336 313.53 361.041 313.53 366.97C313.53 375.329 310.701 381.08 306.363 384.938C301.813 388.984 293.658 392.636 280.218 392.636V430.003C300.281 430.003 318.123 424.486 331.195 412.861C344.48 401.047 350.898 384.624 350.898 366.97C350.898 365.011 350.811 363.069 350.645 361.146C349.628 349.158 345.565 335.962 338.831 326.247L338.824 326.237L338.821 326.232L338.817 326.227L338.803 326.207L338.746 326.125L338.746 326.124ZM233.933 194.392H187.633V117.364H233.933C255.204 117.364 272.447 134.607 272.447 155.878C272.447 177.149 255.204 194.392 233.933 194.392Z" fill="url(#paint0_angular_6_239)"/>
<path d="M331.554 270.023C331.554 296.035 313.72 317.122 280.217 317.122H218.292" stroke="#FD2946" stroke-width="37.3677"/>
<defs>
<radialGradient id="paint0_angular_6_239" cx="0" cy="0" r="1" gradientUnits="userSpaceOnUse" gradientTransform="translate(267.627 347.999) rotate(-124.766) scale(48.0677 30.3423)">
<stop offset="0.199818" stop-color="white"/>
<stop offset="0.48107" stop-color="#FD2946"/>
<stop offset="0.684197" stop-color="#FD2946"/>
<stop offset="0.850866" stop-color="white"/>
</radialGradient>
</defs>
</svg>
