<svg width="1537" height="512" viewBox="0 0 1537 512" fill="none" xmlns="http://www.w3.org/2000/svg">
<path d="M293.269 317.122H355.195C388.698 317.122 406.532 296.035 406.532 270.023C406.532 244.011 388.698 222.924 355.195 222.924H293.269V317.122ZM293.269 317.122V411.32H355.195" stroke="#FD2946" stroke-width="37.3677"/>
<path d="M320.911 213.076C352.5 213.076 378.109 187.468 378.109 155.878C378.109 124.289 352.5 98.6802 320.911 98.6802H255.927V213.076M320.911 213.076H255.927M320.911 213.076L398.387 336.796M255.927 213.076V302.839M407.192 366.97C407.192 356.777 403.794 344.59 398.447 336.882L398.444 336.878M407.192 366.97C407.192 356.775 403.918 346.633 398.444 336.878M407.192 366.97C407.192 392.982 388.699 411.32 355.196 411.32M398.444 336.878L398.387 336.796M398.444 336.878C398.425 336.851 398.406 336.824 398.387 336.796" stroke="url(#paint0_angular_6_227)" stroke-width="37.3677"/>
<path d="M406.532 270.023C406.532 296.035 388.698 317.122 355.195 317.122H293.269" stroke="#FD2946" stroke-width="37.3677"/>
<path d="M534.537 328.009V178.539H589.414C601.371 178.539 611.193 180.604 618.88 184.732C626.71 188.718 632.546 194.198 636.39 201.173C640.233 208.006 642.155 215.622 642.155 224.021C642.155 233.131 639.735 241.459 634.895 249.004C630.197 256.548 622.795 262.029 612.688 265.445L643.65 328.009H612.261L584.502 269.075H561.868V328.009H534.537ZM561.868 249.004H587.705C596.816 249.004 603.506 246.797 607.777 242.384C612.047 237.971 614.183 232.135 614.183 224.875C614.183 217.757 612.047 212.063 607.777 207.793C603.649 203.522 596.887 201.387 587.492 201.387H561.868V249.004ZM711.289 330.571C701.04 330.571 691.787 328.222 683.531 323.525C675.417 318.827 668.94 312.35 664.1 304.094C659.402 295.695 657.053 286.015 657.053 275.054C657.053 264.093 659.473 254.484 664.313 246.228C669.153 237.829 675.63 231.281 683.744 226.583C692.001 221.886 701.254 219.537 711.503 219.537C721.61 219.537 730.72 221.886 738.834 226.583C747.091 231.281 753.568 237.829 758.265 246.228C763.105 254.484 765.525 264.093 765.525 275.054C765.525 286.015 763.105 295.695 758.265 304.094C753.568 312.35 747.091 318.827 738.834 323.525C730.578 328.222 721.396 330.571 711.289 330.571ZM711.289 306.87C718.407 306.87 724.599 304.236 729.866 298.969C735.133 293.56 737.767 285.588 737.767 275.054C737.767 264.52 735.133 256.619 729.866 251.352C724.599 245.943 718.478 243.238 711.503 243.238C704.243 243.238 697.98 245.943 692.713 251.352C687.588 256.619 685.026 264.52 685.026 275.054C685.026 285.588 687.588 293.56 692.713 298.969C697.98 304.236 704.172 306.87 711.289 306.87ZM789.963 328.009V174.269H817.294V328.009H789.963ZM896.681 330.571C886.005 330.571 876.539 328.293 868.282 323.738C860.026 319.183 853.549 312.777 848.851 304.521C844.154 296.264 841.805 286.727 841.805 275.908C841.805 264.947 844.082 255.196 848.638 246.655C853.335 238.114 859.741 231.494 867.855 226.797C876.112 221.957 885.792 219.537 896.895 219.537C907.287 219.537 916.468 221.814 924.44 226.37C932.412 230.925 938.604 237.188 943.017 245.16C947.572 252.989 949.85 261.744 949.85 271.424C949.85 272.99 949.779 274.627 949.636 276.335C949.636 278.043 949.565 279.823 949.423 281.673H868.923C869.492 289.93 872.339 296.407 877.464 301.104C882.731 305.802 889.066 308.151 896.468 308.151C902.02 308.151 906.646 306.941 910.347 304.521C914.191 301.958 917.038 298.684 918.888 294.698H946.647C944.654 301.389 941.309 307.51 936.611 313.062C932.056 318.471 926.362 322.742 919.529 325.874C912.838 329.005 905.223 330.571 896.681 330.571ZM896.895 241.744C890.204 241.744 884.297 243.665 879.172 247.509C874.047 251.21 870.773 256.904 869.35 264.591H922.091C921.664 257.616 919.102 252.064 914.404 247.936C909.707 243.808 903.87 241.744 896.895 241.744Z" fill="white"/>
<path d="M973.635 328.009V178.539H1033.64C1049.15 178.539 1060.97 182.169 1069.08 189.429C1077.34 196.547 1081.47 205.729 1081.47 216.974C1081.47 226.37 1078.9 233.914 1073.78 239.608C1068.8 245.16 1062.68 248.932 1055.42 250.925C1063.96 252.634 1071 256.904 1076.56 263.737C1082.11 270.428 1084.88 278.257 1084.88 287.225C1084.88 299.04 1080.61 308.791 1072.07 316.478C1063.53 324.165 1051.43 328.009 1035.77 328.009H973.635ZM1000.97 241.317H1029.58C1037.27 241.317 1043.17 239.537 1047.3 235.978C1051.43 232.42 1053.49 227.366 1053.49 220.818C1053.49 214.554 1051.43 209.643 1047.3 206.085C1043.32 202.383 1037.27 200.533 1029.15 200.533H1000.97V241.317ZM1000.97 305.802H1031.5C1039.62 305.802 1045.88 303.951 1050.29 300.25C1054.85 296.407 1057.12 291.069 1057.12 284.236C1057.12 277.26 1054.78 271.78 1050.08 267.794C1045.38 263.808 1039.05 261.815 1031.07 261.815H1000.97V305.802ZM1158.52 330.571C1148.27 330.571 1139.02 328.222 1130.76 323.525C1122.65 318.827 1116.17 312.35 1111.33 304.094C1106.63 295.695 1104.28 286.015 1104.28 275.054C1104.28 264.093 1106.7 254.484 1111.54 246.228C1116.38 237.829 1122.86 231.281 1130.98 226.583C1139.23 221.886 1148.48 219.537 1158.73 219.537C1168.84 219.537 1177.95 221.886 1186.07 226.583C1194.32 231.281 1200.8 237.829 1205.5 246.228C1210.34 254.484 1212.76 264.093 1212.76 275.054C1212.76 286.015 1210.34 295.695 1205.5 304.094C1200.8 312.35 1194.32 318.827 1186.07 323.525C1177.81 328.222 1168.63 330.571 1158.52 330.571ZM1158.52 306.87C1165.64 306.87 1171.83 304.236 1177.1 298.969C1182.36 293.56 1185 285.588 1185 275.054C1185 264.52 1182.36 256.619 1177.1 251.352C1171.83 245.943 1165.71 243.238 1158.73 243.238C1151.47 243.238 1145.21 245.943 1139.94 251.352C1134.82 256.619 1132.26 264.52 1132.26 275.054C1132.26 285.588 1134.82 293.56 1139.94 298.969C1145.21 304.236 1151.4 306.87 1158.52 306.87ZM1280.21 328.009C1269.11 328.009 1260.21 325.304 1253.52 319.895C1246.83 314.485 1243.49 304.877 1243.49 291.069V244.947H1225.34V222.099H1243.49L1246.69 193.7H1270.82V222.099H1299.43V244.947H1270.82V291.282C1270.82 296.407 1271.88 299.965 1274.02 301.958C1276.3 303.809 1280.14 304.734 1285.55 304.734H1298.79V328.009H1280.21Z" fill="#FD2946"/>
<defs>
<radialGradient id="paint0_angular_6_227" cx="0" cy="0" r="1" gradientUnits="userSpaceOnUse" gradientTransform="translate(339.43 338.07) rotate(-122.308) scale(41.7319 25.4034)">
<stop offset="0.190012" stop-color="white"/>
<stop offset="0.48107" stop-color="#FD2946"/>
<stop offset="0.684197" stop-color="#FD2946"/>
<stop offset="0.850866" stop-color="white"/>
</radialGradient>
</defs>
</svg>
